# xmcd
#
# Track frame offsets: 
#        150
#        18600
#        41550
#        57450
#        76575
#        97125
#        115050
#        132675
#        156975
#        175350
#
# Disc length: 2580 seconds
#
# Revision: 1
# Processed by: cddbd v1.5.2PL0 Copyright (c) Steve Scherf et al.
# Submitted via: ExactAudioCopy v0.99pb5
#
DISCID=880a120a
DTITLE=Ingrid Kup - Feel Me
DYEAR=1982
DGENRE=Pop
TTITLE0=Love What's Your Face
TTITLE1=What's There About Her
TTITLE2=Hey Butterfly
TTITLE3=Song Of Hope
TTITLE4=I'd Like To Be Your Woman
TTITLE5=Feel Me
TTITLE6=I Will Not Die
TTITLE7=Do You Remember
TTITLE8=Tears In Your Eyes
TTITLE9=Life Goes On
EXTD=
EXTT0=
EXTT1=
EXTT2=
EXTT3=
EXTT4=
EXTT5=
EXTT6=
EXTT7=
EXTT8=
EXTT9=
PLAYORDER=
